<svg width="39.166672" height="39.166626" viewBox="0 0 39.1667 39.1666" fill="none" xmlns="http://www.w3.org/2000/svg" xmlns:xlink="http://www.w3.org/1999/xlink">
	<desc>
			Created with Pixso.
	</desc>
	<defs/>
	<path id="Vector" d="M39.1667 19.5833C39.1667 30.3989 30.3989 39.1666 19.5833 39.1666C8.76776 39.1666 0 30.3989 0 19.5833C0 8.76782 8.76776 0 19.5833 0C30.3989 0 39.1667 8.76782 39.1667 19.5833Z" fill="#EFF9FF" fill-opacity="1.000000" fill-rule="evenodd"/>
	<rect id="Iconly/Light-outline/Graph" width="24.000000" height="24.000000" transform="translate(9.000000 7.000000)" fill="#0962E8" fill-opacity="0"/>
	<path id="Graph" d="M22.423 9.00098C22.0474 8.98657 21.6739 9.12158 21.3925 9.37646C21.1684 9.57935 21.0162 9.84619 20.957 10.1382L20.9349 10.303L20.9299 10.4492L21.3741 16.9734C21.4295 17.8052 22.1615 18.4382 23.0133 18.3901L29.6588 17.9568C30.0477 17.9287 30.4042 17.7524 30.6545 17.4668C30.8538 17.2393 30.9737 16.9563 30.9978 16.6584L31 16.4568L30.9904 16.3408C30.3029 12.2017 26.7085 9.12231 22.423 9.00098ZM22.6287 10.4592L22.4113 10.449L22.8511 16.8782C22.8537 16.9172 22.888 16.9468 22.9214 16.9451L29.5182 16.5134L29.4854 16.3335C28.8318 13.0801 26.0119 10.6643 22.6287 10.4592ZM19.4978 13.7607C19.211 13.1248 18.502 12.7471 17.7814 12.8455L17.6438 12.8682L17.3881 12.9246C13.6616 13.8042 11.0134 17.0657 11.0031 20.8374L11 21.0796C11.0032 21.3259 11.0253 21.5823 11.0664 21.8362L11.1138 22.175C11.2618 23.0779 11.5823 23.9697 12.0578 24.7849C13.8361 27.9475 17.545 29.5894 21.159 28.8066C24.773 28.0239 27.4265 25.0039 27.6744 21.3914C27.6768 20.9006 27.4902 20.4763 27.1604 20.1721C26.8305 19.8677 26.3867 19.7102 25.9341 19.7368L20.3599 20.0725L20.298 20.0713C20.2381 20.0647 20.1845 20.0415 20.1409 20.0044C20.0827 19.9548 20.0471 19.8848 20.0419 19.8096L19.6533 14.3213C19.6382 14.124 19.5854 13.9351 19.4978 13.7607ZM18.0164 14.2783L17.9322 14.2878L17.7037 14.3396C14.7353 15.0549 12.6062 17.6104 12.488 20.6211L12.4828 20.8662C12.4757 21.0527 12.4825 21.2393 12.505 21.438L12.5328 21.6409C12.6321 22.4951 12.9079 23.3208 13.3491 24.0774C14.8163 26.6865 17.8667 28.0369 20.839 27.3931C23.8113 26.7493 25.9936 24.2654 26.1958 21.3416C26.1959 21.2976 26.1774 21.2554 26.1446 21.2251C26.1228 21.2051 26.0959 21.1914 26.0675 21.1853L26.024 21.1819L20.459 21.5171C19.9894 21.5505 19.5255 21.3994 19.17 21.0974C18.8146 20.7952 18.5968 20.3669 18.5652 19.9102L18.177 14.4263C18.1763 14.4172 18.1739 14.4084 18.1568 14.373C18.1315 14.3171 18.0765 14.2815 18.0164 14.2783Z" clip-rule="evenodd" fill="#0962E8" fill-opacity="1.000000" fill-rule="evenodd"/>
</svg>
