<svg width="39.166687" height="39.166626" viewBox="0 0 39.1667 39.1666" fill="none" xmlns="http://www.w3.org/2000/svg" xmlns:xlink="http://www.w3.org/1999/xlink">
	<desc>
			Created with Pixso.
	</desc>
	<defs/>
	<path id="Vector" d="M39.1667 19.5833C39.1667 30.3989 30.3989 39.1666 19.5833 39.1666C8.76776 39.1666 0 30.3989 0 19.5833C0 8.76782 8.76776 0 19.5833 0C30.3989 0 39.1667 8.76782 39.1667 19.5833Z" fill="#EFF9FF" fill-opacity="1.000000" fill-rule="evenodd"/>
	<rect id="Iconly/Light-outline/Filter" width="24.000000" height="24.000000" transform="translate(8.000000 9.000000)" fill="#0962E8" fill-opacity="0"/>
	<path id="Filter" d="M10 15.4373C10 13.2632 11.7684 11.5 13.9494 11.5C16.1305 11.5 17.8989 13.2632 17.8989 15.4373C17.8989 17.6101 16.1303 19.373 13.9494 19.373C11.7686 19.373 10 17.6101 10 15.4373ZM16.3864 15.4373C16.3864 14.0955 15.295 13.0073 13.9494 13.0073C12.6039 13.0073 11.5125 14.0955 11.5125 15.4373C11.5125 16.7778 12.604 17.8657 13.9494 17.8657C15.2949 17.8657 16.3864 16.7778 16.3864 15.4373ZM29.9997 15.4373C29.9997 15.021 29.6611 14.6836 29.2434 14.6836L21.5652 14.6836L21.4626 14.6904C21.0935 14.7402 20.809 15.0557 20.809 15.4373C20.809 15.8535 21.1476 16.1909 21.5652 16.1909L29.2434 16.1909L29.346 16.1841C29.7151 16.134 29.9997 15.8188 29.9997 15.4373ZM22.1011 26.564C22.1011 24.3901 23.8694 22.6279 26.0506 22.6279C28.2318 22.6279 30 24.3901 30 26.564C30 28.7378 28.2318 30.5 26.0506 30.5C23.8694 30.5 22.1011 28.7378 22.1011 26.564ZM28.4875 26.564C28.4875 25.2227 27.3964 24.1355 26.0506 24.1355C24.7047 24.1355 23.6137 25.2227 23.6137 26.564C23.6137 27.9053 24.7047 28.9927 26.0506 28.9927C27.3964 28.9927 28.4875 27.9053 28.4875 26.564ZM19.1912 26.564C19.1912 26.1477 18.8526 25.8103 18.4349 25.8103L10.7567 25.8103L10.6541 25.8171C10.285 25.8672 10.0005 26.1824 10.0005 26.564C10.0005 26.9802 10.3391 27.3176 10.7567 27.3176L18.4349 27.3176L18.5375 27.3108C18.9067 27.261 19.1912 26.9456 19.1912 26.564Z" clip-rule="evenodd" fill="#0962E8" fill-opacity="1.000000" fill-rule="evenodd"/>
</svg>
