<svg width="39.166672" height="39.166626" viewBox="0 0 39.1667 39.1666" fill="none" xmlns="http://www.w3.org/2000/svg" xmlns:xlink="http://www.w3.org/1999/xlink">
	<desc>
			Created with Pixso.
	</desc>
	<defs/>
	<path id="Vector" d="M39.1667 19.5833C39.1667 30.3989 30.3989 39.1666 19.5833 39.1666C8.76776 39.1666 0 30.3989 0 19.5833C0 8.76782 8.76776 0 19.5833 0C30.3989 0 39.1667 8.76782 39.1667 19.5833Z" fill="#EFF9FF" fill-opacity="1.000000" fill-rule="evenodd"/>
	<rect id="Iconly/Light-outline/Activity" width="24.000000" height="24.000000" transform="translate(8.000000 7.000000)" fill="#0962E8" fill-opacity="0"/>
	<path id="Activity" d="M24.8212 11.5813C24.8212 10.1558 25.9805 9 27.4106 9C28.8407 9 30 10.1558 30 11.5813C30 13.0071 28.8407 14.1628 27.4106 14.1628C25.9805 14.1628 24.8212 13.0071 24.8212 11.5813ZM23.2236 10.5381C23.2236 10.1379 22.8982 9.81348 22.4968 9.81348L15.4543 9.81348L15.2273 9.81738C12.0752 9.92285 10 12.2307 10 15.5073L10 23.3152L10.0035 23.5481C10.1006 26.7878 12.2269 29 15.4543 29L23.7918 29L24.0188 28.9963C27.1721 28.8911 29.2461 26.5903 29.2461 23.3152L29.2461 16.5154L29.2394 16.417C29.1913 16.0635 28.8873 15.791 28.5193 15.791C28.1179 15.791 27.7926 16.1152 27.7926 16.5154L27.7926 23.3152L27.7886 23.54C27.7007 25.9868 26.1725 27.551 23.7918 27.551L15.4543 27.551L15.2384 27.5469C12.891 27.4534 11.4535 25.8291 11.4535 23.3152L11.4535 15.5073L11.4575 15.2822C11.5455 12.8328 13.0757 11.2627 15.4543 11.2627L22.4968 11.2627L22.5954 11.2559C22.9502 11.208 23.2236 10.9048 23.2236 10.5381ZM28.5465 11.5813C28.5465 10.9561 28.0379 10.449 27.4106 10.449C26.7833 10.449 26.2747 10.9561 26.2747 11.5813C26.2747 12.2068 26.7833 12.7136 27.4106 12.7136C28.0379 12.7136 28.5465 12.2068 28.5465 11.5813ZM24.5473 16.4114C24.2301 16.1663 23.7736 16.2241 23.5277 16.5403L21.1368 19.6155L18.4045 17.4753L18.3145 17.415C18.0046 17.239 17.6036 17.313 17.3795 17.6033L14.4792 21.3613L14.4199 21.4509C14.2473 21.7593 14.3228 22.1555 14.612 22.3772L14.7019 22.4363C15.0113 22.6084 15.4086 22.5332 15.6311 22.2449L18.0835 19.0669L20.815 21.2056L20.9047 21.2659C21.2139 21.4417 21.6139 21.3687 21.8384 21.0796L24.6767 17.4277L24.7363 17.3384C24.9099 17.0305 24.8358 16.634 24.5473 16.4114Z" clip-rule="evenodd" fill="#0962E8" fill-opacity="1.000000" fill-rule="evenodd"/>
</svg>
