<svg width="39.166687" height="39.166626" viewBox="0 0 39.1667 39.1666" fill="none" xmlns="http://www.w3.org/2000/svg" xmlns:xlink="http://www.w3.org/1999/xlink">
	<desc>
			Created with Pixso.
	</desc>
	<defs/>
	<path id="Vector" d="M39.1667 19.5833C39.1667 30.3989 30.3989 39.1666 19.5833 39.1666C8.76776 39.1666 0 30.3989 0 19.5833C0 8.76782 8.76776 0 19.5833 0C30.3989 0 39.1667 8.76782 39.1667 19.5833Z" fill="#EFF9FF" fill-opacity="1.000000" fill-rule="evenodd"/>
	<rect id="Iconly/Light-outline/Setting" width="24.000000" height="24.000000" transform="translate(8.000000 8.000000)" fill="#0962E8" fill-opacity="0"/>
	<path id="Setting" d="M20.6161 10L19.381 10C18.6855 10 18.0186 10.2715 17.528 10.7546C17.0931 11.1826 16.827 11.7471 16.7758 12.3479L16.7672 12.5417C16.7578 13.1736 16.2474 13.6663 15.621 13.6663C15.4789 13.6648 15.3314 13.6323 15.1956 13.5713L15.0624 13.5017C13.8315 12.8101 12.2313 13.2336 11.5092 14.4617L10.8599 15.5068C10.1695 16.6804 10.51 18.1548 11.6245 18.9141L11.7795 19.0115C12.1615 19.2283 12.3799 19.5989 12.3799 20C12.3799 20.3689 12.1949 20.7136 11.8865 20.9229L11.7811 20.9875C10.6265 21.6411 10.1716 23.0842 10.752 24.2844L10.8368 24.4441L11.4741 25.5225C11.8054 26.1084 12.373 26.5496 13.0444 26.7366C13.6395 26.9023 14.2746 26.8564 14.8376 26.6084L15.0156 26.5212C15.3153 26.3516 15.6248 26.3108 15.9154 26.387C16.2059 26.4631 16.4534 26.6499 16.6027 26.9058C16.6851 27.0417 16.7334 27.1821 16.7506 27.3276L16.7591 27.4753C16.7576 28.8494 17.9322 30 19.381 30L20.6164 30C21.9845 30 23.12 28.9702 23.231 27.6414L23.2391 27.4697C23.2383 27.1379 23.3582 26.8523 23.5728 26.6423C23.7872 26.4321 24.0786 26.3147 24.382 26.3162C24.5214 26.3198 24.6746 26.354 24.8166 26.4163L24.9527 26.4849C26.1011 27.1343 27.6058 26.8008 28.3809 25.709L28.4803 25.5571L29.1399 24.4805C29.4951 23.8833 29.5912 23.1816 29.4119 22.5229C29.253 21.9392 28.8887 21.4297 28.3843 21.084L28.2174 20.9792C27.9272 20.8149 27.736 20.5708 27.658 20.2844C27.58 19.998 27.6218 19.6929 27.7742 19.4368C27.8585 19.2925 27.9706 19.1726 28.1051 19.0806L28.3624 18.9224C29.4043 18.2292 29.7945 16.8652 29.2461 15.7185L29.1892 15.6067C29.1769 15.5776 29.1627 15.5493 29.1465 15.5217L28.5333 14.4792C27.8511 13.3191 26.3759 12.8689 25.1459 13.4355L24.9821 13.5183C24.6882 13.6868 24.3779 13.7295 24.0857 13.655C23.7935 13.5808 23.5435 13.3958 23.3908 13.1406C23.3124 13.0112 23.2641 12.8708 23.2468 12.7253L23.2383 12.5776C23.2599 11.9497 22.9925 11.2769 22.4983 10.7788C22.0041 10.2805 21.3251 9.99976 20.6161 10ZM20.6164 11.4478L19.381 11.4478C19.0786 11.4478 18.7886 11.5659 18.5753 11.7759C18.3862 11.9619 18.2706 12.2075 18.2503 12.4365L18.2369 12.7415C18.1334 14.0708 16.9997 15.1143 15.6133 15.114C15.2559 15.1104 14.9036 15.033 14.5443 14.8704L14.3519 14.7708C13.8038 14.4631 13.1049 14.6482 12.7806 15.1992L12.1313 16.2446C11.8337 16.7505 11.9825 17.3948 12.4432 17.7092L12.704 17.8711C13.4219 18.3467 13.8575 19.1431 13.8575 20C13.8575 20.8445 13.4341 21.634 12.7022 22.1296L12.5464 22.2256C12.0335 22.5164 11.8356 23.144 12.074 23.6384L12.1302 23.7449L12.7595 24.8083C12.9073 25.0696 13.1552 25.2625 13.4484 25.344C13.7083 25.4165 13.9857 25.3965 14.2021 25.3018L14.3108 25.2498C14.9109 24.9065 15.6262 24.8125 16.2974 24.9885C16.9686 25.1646 17.5403 25.5959 17.8794 26.1768C18.0618 26.478 18.1772 26.8132 18.2219 27.1985L18.2421 27.552C18.3043 28.1145 18.7905 28.5522 19.381 28.5522L20.6164 28.5522C21.2137 28.5522 21.7099 28.1023 21.7565 27.551L21.7621 27.4421C21.7588 26.7585 22.0345 26.1018 22.5278 25.6184C23.0212 25.135 23.6913 24.865 24.4053 24.8687C24.7556 24.8777 25.1003 24.9546 25.4528 25.1101L25.7687 25.2681C26.2646 25.4814 26.8529 25.3259 27.1511 24.9067L27.2236 24.7957L27.868 23.7437C28.0203 23.4875 28.0621 23.1824 27.9841 22.896C27.915 22.6421 27.7566 22.4207 27.5645 22.2881L27.2922 22.1196C26.7716 21.7747 26.3932 21.2563 26.2302 20.6575C26.0509 19.9985 26.1471 19.2971 26.4946 18.7126C26.6849 18.3872 26.9464 18.1074 27.2873 17.8752L27.4481 17.7761C27.9601 17.4827 28.1578 16.855 27.9212 16.3589L27.8505 16.2253L27.8378 16.1973L27.253 15.2021C26.9764 14.7317 26.4009 14.5286 25.9125 14.6892L25.8015 14.7327L25.6983 14.7842C25.1001 15.1294 24.3863 15.2273 23.7143 15.0564C23.0423 14.8855 22.4673 14.4597 22.1181 13.8762C21.9357 13.575 21.8203 13.2397 21.7756 12.8545L21.7625 12.6025C21.7713 12.2993 21.6545 12.0054 21.4387 11.7878C21.2229 11.5703 20.9263 11.4475 20.6164 11.4478ZM20.0032 16.7319C18.1609 16.7319 16.6675 18.1951 16.6675 20C16.6675 21.8049 18.1609 23.2681 20.0032 23.2681C21.8455 23.2681 23.339 21.8049 23.339 20C23.339 18.1951 21.8455 16.7319 20.0032 16.7319ZM20.0032 18.1794C21.0294 18.1794 21.8613 18.9946 21.8613 20C21.8613 21.0054 21.0294 21.8206 20.0032 21.8206C18.9771 21.8206 18.1451 21.0054 18.1451 20C18.1451 18.9946 18.9771 18.1794 20.0032 18.1794Z" clip-rule="evenodd" fill="#0962E8" fill-opacity="1.000000" fill-rule="evenodd"/>
</svg>
