<svg width="157.000000" height="59.000000" viewBox="0 0 157 59" fill="none" xmlns="http://www.w3.org/2000/svg" xmlns:xlink="http://www.w3.org/1999/xlink">
	<desc>
			Created with Pixso.
	</desc>
	<defs/>
	<path id="Rectangle 1742" d="M68 14.75C68 6.60376 74.5322 0 82.5901 0L142.41 0C150.468 0 157 6.60376 157 14.75L157 44.25C157 52.3962 150.468 59 142.41 59L82.5901 59C74.5322 59 68 52.3962 68 44.25L68 14.75Z" fill="#FFFFFF" fill-opacity="1.000000" fill-rule="nonzero"/>
	<path id="Fin" d="M27.5775 19.2856C29.8634 19.2856 31.6828 17.4285 31.6828 15.1428C31.6828 12.8572 29.8634 11 27.5775 11C25.3848 11 23.5187 12.8572 23.5187 15.1428C23.5187 17.4285 25.3848 19.2856 27.5775 19.2856ZM0 47L6.76453 47L6.76453 33.3333L17.2612 33.3333L17.2612 26.762L6.76453 26.762L6.76453 19.762L20.1536 19.762L20.1536 13.1904L0 13.1904L0 47ZM43.325 47L36.9337 47L36.9337 23.1904L43.325 23.1904L43.325 25.9048C44.5846 24 46.9638 22.6667 49.9962 22.6667C55.6411 22.6667 59 26.8572 59 33.0476L59 47L52.6087 47L52.6087 34.1428C52.6087 30.7144 51.1625 28.6191 48.5034 28.6191C45.5176 28.6191 43.325 30.8096 43.325 35.3809L43.325 47ZM24.4051 47L30.7964 47L30.7964 23.1904L24.4051 23.1904L24.4051 47Z" fill="#29374E" fill-opacity="1.000000" fill-rule="evenodd"/>
	<path id="Kit" d="M115.693 19.2205C118.008 19.2205 119.851 17.3779 119.851 15.1104C119.851 12.8425 118.008 11 115.693 11C113.472 11 111.582 12.8425 111.582 15.1104C111.582 17.3779 113.472 19.2205 115.693 19.2205ZM101.359 46.7166L110.243 46.7166L93.562 29.2834L107.36 13.1733L98.9017 13.1733L86.8046 27.3938L86.8046 13.1733L80 13.1733L80 46.7166L86.8046 46.7166L86.8046 31.5039L101.359 46.7166ZM141 46.4802C139.913 46.811 138.732 47 136.889 47C131.88 47 127.863 44.2598 127.863 38.4487L127.863 28.7637L123.091 28.7637L123.091 23.0945L127.863 23.0945L127.863 16.5276L134.337 16.5276L134.337 23.0945L141 23.0945L141 28.7637L134.337 28.7637L134.337 37.1733C134.337 40.0552 135.518 41.189 138.354 41.189C139.346 41.189 140.244 41.0474 141 40.7637L141 46.4802ZM112.479 46.7166L118.953 46.7166L118.953 23.0945L112.479 23.0945L112.479 46.7166Z" fill="#0962E8" fill-opacity="1.000000" fill-rule="evenodd"/>
</svg>
