<svg width="222.000000" height="81.000000" viewBox="0 0 222 81" fill="none" xmlns="http://www.w3.org/2000/svg" xmlns:xlink="http://www.w3.org/1999/xlink">
	<desc>
			Created with Pixso.
	</desc>
	<defs/>
	<rect id="Rectangle 1742" x="100.000000" y="1.000000" rx="20.000000" width="122.000000" height="80.000000" fill="#FFFFFF" fill-opacity="1.000000"/>
	<path id="Fin" d="M4.04688 65L13.8906 65L13.8906 45.7656L32.8125 45.7656L32.8125 37.6562L13.8906 37.6562L13.8906 26.5625L34.8594 26.5625L34.8594 18.4531L4.04688 18.4531L4.04688 65ZM41.2912 65L50.9787 65L50.9787 30.0938L41.2912 30.0938L41.2912 65ZM46.1662 25.5938C49.0412 25.5938 51.4162 23.3906 51.4162 20.6875C51.4162 18 49.0412 15.7969 46.1662 15.7969C43.2912 15.7969 40.9318 18 40.9318 20.6875C40.9318 23.3906 43.2912 25.5938 46.1662 25.5938ZM68.3878 44.8125C68.4034 40.3125 71.0909 37.6875 74.9972 37.6875C78.8878 37.6875 81.2315 40.2344 81.2003 44.5L81.2003 65L90.8878 65L90.8878 42.7656C90.8878 34.6406 86.1065 29.6406 78.8409 29.6406C73.6534 29.6406 69.9034 32.1875 68.3409 36.25L67.9347 36.25L67.9347 30.0938L58.7003 30.0938L58.7003 65L68.3878 65L68.3878 44.8125Z" fill="#29374E" fill-opacity="1.000000" fill-rule="evenodd"/>
	<path id="Kit" d="M121.047 65L130.891 65L130.891 51.7656L135.734 45.8594L148.484 65L160.25 65L142.766 39.2969L160.047 18.4531L148.25 18.4531L131.5 38.9844L130.891 38.9844L130.891 18.4531L121.047 18.4531L121.047 65ZM167.562 65L177.249 65L177.249 30.0938L167.562 30.0938L167.562 65ZM172.437 25.5938C175.312 25.5938 177.687 23.3906 177.687 20.6875C177.687 18 175.312 15.7969 172.437 15.7969C169.562 15.7969 167.202 18 167.202 20.6875C167.202 23.3906 169.562 25.5938 172.437 25.5938ZM203.933 30.0938L197.355 30.0938L197.355 21.7344L187.683 21.7344L187.683 30.0938L182.902 30.0938L182.902 37.3594L187.683 37.3594L187.683 55.5469C187.636 62.3906 192.292 65.7656 199.308 65.4844C201.808 65.3906 203.589 64.8906 204.558 64.5625L203.042 57.3594C202.558 57.4531 201.542 57.6875 200.636 57.6875C198.698 57.6875 197.355 56.9531 197.355 54.2656L197.355 37.3594L203.933 37.3594L203.933 30.0938Z" fill="#0962E8" fill-opacity="1.000000" fill-rule="evenodd"/>
</svg>
